<svg width="32" height="25" viewBox="0 0 24 25" fill="none" xmlns="http://www.w3.org/2000/svg">
<rect x="3.12822" y="2.27904" width="17.7437" height="15.3383" rx="2.05" fill="url(#paint0_linear_101_234)" stroke="white" stroke-width="0.1"/>
<path d="M2.77954 18.7718C3.09335 18.0695 3.79068 17.6173 4.55989 17.6173H19.5818C20.3649 17.6173 21.072 18.0857 21.3774 18.8067L22.7763 22.1091C23.321 23.3949 22.3772 24.8197 20.9808 24.8197H3.08425C1.67144 24.8197 0.72753 23.3641 1.3039 22.0742L2.77954 18.7718Z" fill="url(#paint1_linear_101_234)" stroke="white" stroke-width="0.1"/>
<path d="M5.24442 2.15192L3.25033 4.15672L5.25073 6.15192" stroke="white" stroke-linecap="round" stroke-linejoin="round"/>
<rect x="8.32129" y="0.158813" width="1" height="8" rx="0.5" transform="rotate(15 8.32129 0.158813)" fill="white"/>
<path d="M10.2934 6.15192L12.2875 4.14711L10.2871 2.15192" stroke="white" stroke-linecap="round" stroke-linejoin="round"/>
<defs>
<linearGradient id="paint0_linear_101_234" x1="3.17822" y1="9.9482" x2="21.9614" y2="9.9482" gradientUnits="userSpaceOnUse">
<stop stop-color="#1E999F"/>
<stop offset="1" stop-color="#065289"/>
</linearGradient>
<linearGradient id="paint1_linear_101_234" x1="-1.3411e-07" y1="21.2185" x2="25.55" y2="21.2185" gradientUnits="userSpaceOnUse">
<stop stop-color="#4E54EA"/>
<stop offset="1" stop-color="#531E7B"/>
</linearGradient>
</defs>
</svg>
