<svg width="173" height="55" viewBox="0 0 173 55" fill="none" xmlns="http://www.w3.org/2000/svg">
<g clip-path="url(#clip0_113_1152)">
<path d="M42.1482 15.7676C42.1482 15.7799 42.1348 15.7923 42.1348 15.8046L42.0272 15.9649L33.9548 28.7754L31.8156 32.166L30.4837 34.2744L28.3445 37.6651L27.322 39.2926L25.1828 42.6832L24.8464 43.2134L22.8553 46.3821H22.8149L20.9179 44.0518L20.7295 43.8299C20.595 43.608 20.5815 43.3244 20.7026 43.0655C20.7161 43.0408 20.7295 43.0161 20.7295 43.0038C20.743 42.9791 20.7564 42.9545 20.7699 42.9298L22.4382 40.2789L23.0571 39.3049L24.0796 37.6774L26.2188 34.2867L27.5507 32.1784L29.6899 28.7877L40.2647 11.9947L42.0944 14.9045C42.2559 15.1511 42.2828 15.4717 42.1482 15.7676Z" fill="white"/>
<path d="M66.4999 46.3698H62.8001C62.6655 46.3698 62.5445 46.3451 62.4234 46.2958C62.2619 46.2341 62.1274 46.1355 62.0332 46.0245L61.8718 45.7779L59.894 42.6709L57.7549 39.2802L56.7324 37.6527L54.5932 34.262L53.2612 32.1537L51.149 28.7753L42.5519 15.1387L40.7491 12.2659L40.6683 12.1303C40.5607 11.9207 40.5472 11.6618 40.6549 11.4152C40.6683 11.3905 40.6683 11.3782 40.6818 11.3535C40.6952 11.3289 40.7087 11.3165 40.7221 11.2919L42.5519 8.36975L44.6776 11.7481L55.4004 28.7753L57.5396 32.166L58.8715 34.2744L61.0107 37.665L62.0332 39.2925L64.1724 42.6832L66.4999 46.3698Z" fill="white"/>
<path d="M22.0078 40.5378C21.9809 40.5871 21.9674 40.6364 21.927 40.6734L20.2991 43.2626L8.5 28.7753H12.6169C12.7514 28.7753 12.8725 28.7999 12.9936 28.8492C13.1416 28.9109 13.2627 28.9972 13.3703 29.0958L13.3838 29.1082L13.4511 29.1945L21.8867 39.5514C22.1019 39.8226 22.1692 40.1925 22.0078 40.5378Z" fill="white"/>
<path d="M48.1623 40.9818C48.1623 41.9188 47.3416 42.6709 46.3191 42.6709H38.6235C37.601 42.6709 36.7803 41.9188 36.7803 40.9818C36.7803 40.0447 37.601 39.2926 38.6235 39.2926H46.3057C47.3282 39.2803 48.1623 40.0447 48.1623 40.9818Z" fill="white"/>
<path d="M48.1623 30.4768C48.1623 31.4138 47.3416 32.1659 46.3191 32.1659H38.6235C37.601 32.1659 36.7803 31.4138 36.7803 30.4768C36.7803 29.5397 37.601 28.7876 38.6235 28.7876H46.3057C47.3282 28.7753 48.1623 29.5397 48.1623 30.4768Z" fill="white"/>
<path d="M48.1623 35.9636C48.1623 36.9006 47.3416 37.6527 46.3191 37.6527H38.6235C37.601 37.6527 36.7803 36.9006 36.7803 35.9636C36.7803 35.0265 37.601 34.2744 38.6235 34.2744H46.3057C47.3282 34.2744 48.1623 35.0265 48.1623 35.9636Z" fill="white"/>
</g>
<path d="M79.9146 38.3698C79.5733 38.3698 79.3066 38.2844 79.1146 38.1138C78.9226 37.9431 78.784 37.7298 78.6986 37.4738L71.8506 16.9298C71.808 16.8231 71.7866 16.7271 71.7866 16.6418C71.7866 16.4498 71.8506 16.2898 71.9786 16.1618C72.1066 16.0337 72.2666 15.9697 72.4586 15.9697H75.2746C75.5733 15.9697 75.7973 16.0551 75.9466 16.2257C76.1173 16.3751 76.224 16.5244 76.2666 16.6737L81.6746 33.1538L87.0506 16.6737C87.1146 16.5244 87.2213 16.3751 87.3706 16.2257C87.5413 16.0551 87.776 15.9697 88.0746 15.9697H90.8906C91.0613 15.9697 91.2106 16.0337 91.3386 16.1618C91.488 16.2898 91.5626 16.4498 91.5626 16.6418C91.5626 16.7271 91.5413 16.8231 91.4986 16.9298L84.6506 37.4738C84.5653 37.7298 84.4266 37.9431 84.2346 38.1138C84.0426 38.2844 83.776 38.3698 83.4346 38.3698H79.9146ZM91.9169 38.3698C91.7462 38.3698 91.5862 38.3058 91.4369 38.1778C91.3089 38.0498 91.2449 37.8898 91.2449 37.6978C91.2449 37.6124 91.2662 37.5164 91.3089 37.4098L99.0209 16.7698C99.0849 16.5564 99.2022 16.3751 99.3729 16.2257C99.5649 16.0551 99.8209 15.9697 100.141 15.9697H103.629C103.949 15.9697 104.194 16.0551 104.365 16.2257C104.536 16.3751 104.664 16.5564 104.749 16.7698L112.461 37.4098C112.482 37.5164 112.493 37.6124 112.493 37.6978C112.493 37.8898 112.429 38.0498 112.301 38.1778C112.173 38.3058 112.024 38.3698 111.853 38.3698H109.069C108.77 38.3698 108.546 38.3058 108.397 38.1778C108.269 38.0284 108.184 37.8898 108.141 37.7618L106.637 33.8578H97.1329L95.6289 37.7618C95.5862 37.8898 95.4902 38.0284 95.3409 38.1778C95.2129 38.3058 94.9995 38.3698 94.7009 38.3698H91.9169ZM98.2529 30.1778H105.517L101.869 20.2898L98.2529 30.1778ZM116.248 38.3698C116.035 38.3698 115.854 38.2951 115.704 38.1458C115.555 37.9964 115.48 37.8151 115.48 37.6018V16.7698C115.48 16.5351 115.555 16.3431 115.704 16.1938C115.854 16.0444 116.035 15.9697 116.248 15.9697H130.328C130.563 15.9697 130.755 16.0444 130.904 16.1938C131.054 16.3431 131.128 16.5351 131.128 16.7698V18.8818C131.128 19.0951 131.054 19.2764 130.904 19.4258C130.755 19.5751 130.563 19.6497 130.328 19.6497H119.8V25.3138H129.624C129.859 25.3138 130.051 25.3884 130.2 25.5378C130.35 25.6658 130.424 25.8471 130.424 26.0818V28.0658C130.424 28.3004 130.35 28.4924 130.2 28.6418C130.051 28.7698 129.859 28.8338 129.624 28.8338H119.8V34.6898H130.584C130.819 34.6898 131.011 34.7644 131.16 34.9138C131.31 35.0631 131.384 35.2551 131.384 35.4898V37.6018C131.384 37.8151 131.31 37.9964 131.16 38.1458C131.011 38.2951 130.819 38.3698 130.584 38.3698H116.248ZM135.579 38.3698C135.365 38.3698 135.184 38.2951 135.035 38.1458C134.885 37.9964 134.811 37.8151 134.811 37.6018V34.4338C134.811 34.1991 134.885 34.0071 135.035 33.8578C135.184 33.7084 135.365 33.6338 135.579 33.6338H138.779C138.992 33.6338 139.173 33.7084 139.323 33.8578C139.472 34.0071 139.547 34.1991 139.547 34.4338V37.6018C139.547 37.8151 139.472 37.9964 139.323 38.1458C139.173 38.2951 138.992 38.3698 138.779 38.3698H135.579ZM144.561 38.3698C144.348 38.3698 144.166 38.2951 144.017 38.1458C143.868 37.9964 143.793 37.8151 143.793 37.6018V16.7377C143.793 16.5244 143.868 16.3431 144.017 16.1938C144.166 16.0444 144.348 15.9697 144.561 15.9697H147.569C147.804 15.9697 147.985 16.0444 148.113 16.1938C148.262 16.3431 148.337 16.5244 148.337 16.7377V37.6018C148.337 37.8151 148.262 37.9964 148.113 38.1458C147.985 38.2951 147.804 38.3698 147.569 38.3698H144.561ZM161.963 38.6898C160.065 38.6898 158.433 38.3804 157.067 37.7618C155.702 37.1218 154.635 36.1511 153.867 34.8498C153.099 33.5271 152.683 31.8844 152.619 29.9218C152.598 29.0044 152.587 28.0978 152.587 27.2018C152.587 26.3058 152.598 25.3884 152.619 24.4497C152.683 22.5084 153.11 20.8871 153.899 19.5858C154.689 18.2844 155.766 17.3031 157.131 16.6418C158.518 15.9804 160.129 15.6497 161.963 15.6497C163.798 15.6497 165.409 15.9804 166.795 16.6418C168.182 17.3031 169.27 18.2844 170.059 19.5858C170.849 20.8871 171.275 22.5084 171.339 24.4497C171.382 25.3884 171.403 26.3058 171.403 27.2018C171.403 28.0978 171.382 29.0044 171.339 29.9218C171.275 31.8844 170.859 33.5271 170.091 34.8498C169.323 36.1511 168.246 37.1218 166.859 37.7618C165.494 38.3804 163.862 38.6898 161.963 38.6898ZM161.963 35.0098C163.35 35.0098 164.481 34.6044 165.355 33.7938C166.23 32.9618 166.699 31.6178 166.763 29.7618C166.806 28.8231 166.827 27.9591 166.827 27.1698C166.827 26.3591 166.806 25.4951 166.763 24.5778C166.721 23.3404 166.486 22.3378 166.059 21.5697C165.654 20.7804 165.099 20.2151 164.395 19.8738C163.691 19.5111 162.881 19.3298 161.963 19.3298C161.067 19.3298 160.267 19.5111 159.563 19.8738C158.859 20.2151 158.294 20.7804 157.867 21.5697C157.462 22.3378 157.238 23.3404 157.195 24.5778C157.174 25.4951 157.163 26.3591 157.163 27.1698C157.163 27.9591 157.174 28.8231 157.195 29.7618C157.259 31.6178 157.729 32.9618 158.603 33.7938C159.478 34.6044 160.598 35.0098 161.963 35.0098Z" fill="white"/>
<defs>
<clipPath id="clip0_113_1152">
<rect width="58" height="38" fill="white" transform="translate(8.5 8.36975)"/>
</clipPath>
</defs>
</svg>
