<svg width="50" height="33" viewBox="0 0 50 33" fill="none" xmlns="http://www.w3.org/2000/svg">
<g clip-path="url(#clip0_102_736)">
<path d="M28.927 6.47977C28.927 6.49015 28.9156 6.50054 28.9156 6.51092L28.8247 6.6459L22.0049 17.4337L20.1977 20.289L19.0724 22.0645L17.2652 24.9197L16.4013 26.2903L14.5941 29.1456L14.3099 29.592L12.6277 32.2604H12.5936L10.991 30.2981L10.8319 30.1112C10.7182 29.9243 10.7068 29.6855 10.8091 29.4674C10.8205 29.4467 10.8319 29.4259 10.8319 29.4155C10.8432 29.3948 10.8546 29.374 10.866 29.3532L12.2754 27.1209L12.7982 26.3007L13.6621 24.9301L15.4693 22.0748L16.5946 20.2994L18.4018 17.4441L27.3357 3.30261L28.8815 5.75297C29.0179 5.96063 29.0406 6.23058 28.927 6.47977Z" fill="white"/>
<path d="M49.4999 32.25H46.3742C46.2605 32.25 46.1582 32.2292 46.0559 32.1877C45.9196 32.1358 45.8059 32.0527 45.7263 31.9593L45.5899 31.7516L43.9191 29.1351L42.1119 26.2798L41.248 24.9093L39.4408 22.054L38.3155 20.2786L36.531 17.4336L29.268 5.95019L27.7449 3.53099L27.6767 3.41677C27.5858 3.24027 27.5744 3.02223 27.6653 2.81457C27.6767 2.7938 27.6767 2.78342 27.6881 2.76265C27.6994 2.74189 27.7108 2.73151 27.7222 2.71074L29.268 0.25L31.0638 3.09491L40.1228 17.4336L41.93 20.2889L43.0553 22.0644L44.8625 24.9197L45.7263 26.2902L47.5336 29.1455L49.4999 32.25Z" fill="white"/>
<path d="M11.9117 27.3388C11.889 27.3804 11.8776 27.4219 11.8435 27.4531L10.4682 29.6335L0.5 17.4336H3.97808C4.09174 17.4336 4.19404 17.4544 4.29633 17.4959C4.42136 17.5478 4.52366 17.6205 4.61459 17.7035L4.62596 17.7139L4.68279 17.7866L11.8094 26.5082C11.9913 26.7366 12.0481 27.0481 11.9117 27.3388Z" fill="white"/>
<path d="M34.0077 27.7127C34.0077 28.5018 33.3144 29.1352 32.4505 29.1352H25.949C25.0852 29.1352 24.3918 28.5018 24.3918 27.7127C24.3918 26.9236 25.0852 26.2903 25.949 26.2903H32.4392C33.303 26.2799 34.0077 26.9236 34.0077 27.7127Z" fill="white"/>
<path d="M34.0077 18.8664C34.0077 19.6555 33.3144 20.2889 32.4505 20.2889H25.949C25.0852 20.2889 24.3918 19.6555 24.3918 18.8664C24.3918 18.0773 25.0852 17.444 25.949 17.444H32.4392C33.303 17.4336 34.0077 18.0773 34.0077 18.8664Z" fill="white"/>
<path d="M34.0077 23.4869C34.0077 24.276 33.3144 24.9094 32.4505 24.9094H25.949C25.0852 24.9094 24.3918 24.276 24.3918 23.4869C24.3918 22.6978 25.0852 22.0645 25.949 22.0645H32.4392C33.303 22.0645 34.0077 22.6978 34.0077 23.4869Z" fill="white"/>
</g>
<defs>
<clipPath id="clip0_102_736">
<rect width="49" height="32" fill="white" transform="translate(0.5 0.25)"/>
</clipPath>
</defs>
</svg>
