<svg width="479" height="368" viewBox="0 0 479 368" fill="none" xmlns="http://www.w3.org/2000/svg">
<g clip-path="url(#clip0_251_257)">
<rect x="319" y="20" width="159.441" height="172" rx="8" fill="url(#paint0_linear_251_257)" style="mix-blend-mode:color-burn"/>
<path d="M403.779 122.92L377.711 138.002C366.121 144.708 351.634 136.326 351.634 122.917V83.6203C351.634 70.2089 366.121 61.828 377.711 68.5332V107.828C377.711 121.235 392.19 129.615 403.779 122.92Z" fill="url(#paint1_linear_251_257)"/>
<path d="M437.749 103.267L403.789 122.915H403.779C392.191 129.61 377.711 121.229 377.711 107.822L411.67 88.1809C423.261 81.4758 423.261 64.7118 411.67 58.0067L437.748 73.0938C449.339 79.7989 449.338 96.5617 437.749 103.267Z" fill="url(#paint2_linear_251_257)"/>
<path d="M411.671 88.1809L377.711 68.5331C366.121 61.828 351.634 70.2089 351.634 83.6202V53.4439C351.634 40.0347 366.121 31.6517 377.709 38.3634L411.671 58.0067C423.262 64.7119 423.262 81.4758 411.671 88.1809Z" fill="url(#paint3_linear_251_257)"/>
<g filter="url(#filter0_d_251_257)">
<path d="M377.077 154.516V139.603C377.077 139.603 388.62 133.312 377.075 139.604C365.531 145.896 351 137.927 351 124.518V154.516V162.934C351 166.399 352.374 169.723 354.819 172.173C357.264 174.623 360.581 176 364.039 176C367.497 176 370.813 174.623 373.258 172.173C375.704 169.723 377.077 166.399 377.077 162.934L377.077 154.516Z" fill="url(#paint4_linear_251_257)"/>
</g>
</g>
<g clip-path="url(#clip1_251_257)">
<rect y="54" width="159.441" height="172" rx="8" fill="url(#paint5_linear_251_257)" style="mix-blend-mode:plus-darker"/>
<path d="M84.779 156.92L58.7114 172.002C47.121 178.708 32.634 170.326 32.634 156.917V117.62C32.634 104.209 47.121 95.828 58.7114 102.533V141.828C58.7114 155.235 73.1907 163.615 84.779 156.92Z" fill="url(#paint6_linear_251_257)"/>
<path d="M118.749 137.267L84.7888 156.915H84.779C73.1907 163.61 58.7114 155.229 58.7114 141.822L92.6703 122.181C104.261 115.476 104.261 98.7118 92.6703 92.0067L118.748 107.094C130.339 113.799 130.338 130.562 118.749 137.267Z" fill="url(#paint7_linear_251_257)"/>
<path d="M92.6714 122.181L58.7114 102.533C47.121 95.828 32.634 104.209 32.634 117.62V87.4439C32.634 74.0347 47.121 65.6517 58.7093 72.3634L92.6714 92.0067C104.262 98.7119 104.262 115.476 92.6714 122.181Z" fill="url(#paint8_linear_251_257)"/>
<g filter="url(#filter1_d_251_257)">
<path d="M58.0774 188.515V173.603C58.0774 173.603 69.6199 167.312 58.0752 173.604C46.5306 179.896 32 171.927 32 158.518V188.515V196.934C32 200.399 33.3737 203.723 35.8189 206.173C38.2642 208.623 41.5806 210 45.0387 210C48.4968 210 51.8132 208.623 54.2585 206.173C56.7037 203.723 58.0774 200.399 58.0774 196.934L58.0774 188.515Z" fill="url(#paint9_linear_251_257)"/>
</g>
</g>
<rect x="248" y="182" width="130.173" height="132" rx="8" fill="url(#paint10_linear_251_257)" style="mix-blend-mode:hue"/>
<path d="M316.699 260.086L298.08 270.858C289.801 275.649 279.453 269.662 279.453 260.084V232.015C279.453 222.435 289.801 216.449 298.08 221.238V249.306C298.08 258.882 308.422 264.868 316.699 260.086Z" fill="url(#paint11_linear_251_257)"/>
<path d="M340.964 246.048L316.707 260.082H316.7C308.422 264.864 298.08 258.878 298.08 249.302L322.336 235.272C330.615 230.483 330.615 218.508 322.336 213.719L340.963 224.496C349.243 229.285 349.242 241.258 340.964 246.048Z" fill="url(#paint12_linear_251_257)"/>
<path d="M322.337 235.272L298.08 221.238C289.801 216.449 279.453 222.435 279.453 232.014V210.46C279.453 200.882 289.801 194.894 298.078 199.688L322.337 213.719C330.616 218.508 330.616 230.483 322.337 235.272Z" fill="url(#paint13_linear_251_257)"/>
<g filter="url(#filter2_d_251_257)">
<path d="M297.627 282.654V272.002C297.627 272.002 305.871 267.508 297.625 272.003C289.379 276.497 279 270.805 279 261.227V282.654V288.667C279 291.142 279.981 293.516 281.728 295.266C283.474 297.017 285.843 298 288.313 298C290.783 298 293.152 297.017 294.899 295.266C296.646 293.516 297.627 291.142 297.627 288.667L297.627 282.654Z" fill="url(#paint14_linear_251_257)"/>
</g>
<rect x="127" y="194" width="132.172" height="132" rx="8" fill="url(#paint15_linear_251_257)" style="mix-blend-mode:hard-light"/>
<path d="M196.699 272.086L178.08 282.858C169.801 287.648 159.453 281.661 159.453 272.083V244.014C159.453 234.435 169.801 228.449 178.08 233.238V261.305C178.08 270.882 188.422 276.868 196.699 272.086Z" fill="url(#paint16_linear_251_257)"/>
<path d="M220.963 258.048L196.706 272.082H196.699C188.422 276.864 178.08 270.878 178.08 261.301L202.336 247.272C210.615 242.483 210.615 230.508 202.336 225.719L220.963 236.496C229.242 241.285 229.242 253.258 220.963 258.048Z" fill="url(#paint17_linear_251_257)"/>
<path d="M202.337 247.272L178.08 233.238C169.801 228.449 159.453 234.435 159.453 244.014V222.46C159.453 212.882 169.801 206.894 178.078 211.688L202.337 225.719C210.616 230.508 210.616 242.483 202.337 247.272Z" fill="#6D28A1"/>
<g filter="url(#filter3_d_251_257)">
<path d="M177.627 294.654V284.002C177.627 284.002 185.871 279.509 177.625 284.003C169.379 288.497 159 282.805 159 273.227V294.654V300.667C159 303.142 159.981 305.516 161.728 307.266C163.474 309.017 165.843 310 168.313 310C170.783 310 173.152 309.017 174.899 307.266C176.645 305.516 177.627 303.142 177.627 300.667L177.627 294.654Z" fill="url(#paint18_linear_251_257)"/>
</g>
<g filter="url(#filter4_d_251_257)">
<g clip-path="url(#clip2_251_257)">
<rect x="149" y="6" width="186.71" height="204" rx="8" fill="url(#paint19_linear_251_257)" style="mix-blend-mode:color" shape-rendering="crispEdges"/>
<g filter="url(#filter5_d_251_257)">
<path d="M248.858 129.754L215.343 149.145C200.441 157.767 181.815 146.99 181.815 129.75V79.226C181.815 61.9828 200.441 51.2074 215.343 59.8283V110.35C215.343 127.587 233.959 138.363 248.858 129.754Z" fill="url(#paint20_linear_251_257)"/>
<path d="M292.534 104.486L248.872 129.747H248.859C233.96 138.356 215.344 127.58 215.344 110.343L259.005 85.0898C273.907 76.4689 273.907 54.9153 259.005 46.2944L292.533 65.6921C307.436 74.313 307.435 95.8652 292.534 104.486Z" fill="url(#paint21_linear_251_257)"/>
<path d="M259.006 85.0897L215.343 59.8283C200.441 51.2074 181.815 61.9828 181.815 79.226V40.4278C181.815 23.1875 200.441 12.4093 215.34 21.0386L259.006 46.2944C273.908 54.9152 273.908 76.4688 259.006 85.0897Z" fill="url(#paint22_linear_251_257)"/>
<g filter="url(#filter6_d_251_257)">
<path d="M214.528 170.377V151.204C214.528 151.204 229.368 143.115 214.525 151.205C199.682 159.295 181 149.049 181 131.809V170.377V181.201C181 185.656 182.766 189.929 185.91 193.08C189.054 196.23 193.318 198 197.764 198C202.21 198 206.474 196.23 209.618 193.08C212.762 189.929 214.528 185.656 214.528 181.201L214.528 170.377Z" fill="#0D6990"/>
</g>
</g>
</g>
<rect x="149.25" y="6.25" width="186.21" height="203.5" rx="7.75" stroke="url(#paint23_linear_251_257)" stroke-width="0.5" shape-rendering="crispEdges"/>
</g>
<defs>
<filter id="filter0_d_251_257" x="294" y="68.5179" width="153.207" height="173.482" filterUnits="userSpaceOnUse" color-interpolation-filters="sRGB">
<feFlood flood-opacity="0" result="BackgroundImageFix"/>
<feColorMatrix in="SourceAlpha" type="matrix" values="0 0 0 0 0 0 0 0 0 0 0 0 0 0 0 0 0 0 127 0" result="hardAlpha"/>
<feOffset dx="4" dy="5"/>
<feGaussianBlur stdDeviation="30.5"/>
<feComposite in2="hardAlpha" operator="out"/>
<feColorMatrix type="matrix" values="0 0 0 0 0 0 0 0 0 0 0 0 0 0 0 0 0 0 0.1 0"/>
<feBlend mode="normal" in2="BackgroundImageFix" result="effect1_dropShadow_251_257"/>
<feBlend mode="normal" in="SourceGraphic" in2="effect1_dropShadow_251_257" result="shape"/>
</filter>
<filter id="filter1_d_251_257" x="-25" y="102.518" width="153.207" height="173.482" filterUnits="userSpaceOnUse" color-interpolation-filters="sRGB">
<feFlood flood-opacity="0" result="BackgroundImageFix"/>
<feColorMatrix in="SourceAlpha" type="matrix" values="0 0 0 0 0 0 0 0 0 0 0 0 0 0 0 0 0 0 127 0" result="hardAlpha"/>
<feOffset dx="4" dy="5"/>
<feGaussianBlur stdDeviation="30.5"/>
<feComposite in2="hardAlpha" operator="out"/>
<feColorMatrix type="matrix" values="0 0 0 0 0 0 0 0 0 0 0 0 0 0 0 0 0 0 0.1 0"/>
<feBlend mode="normal" in2="BackgroundImageFix" result="effect1_dropShadow_251_257"/>
<feBlend mode="normal" in="SourceGraphic" in2="effect1_dropShadow_251_257" result="shape"/>
</filter>
<filter id="filter2_d_251_257" x="222" y="205.227" width="144.291" height="158.773" filterUnits="userSpaceOnUse" color-interpolation-filters="sRGB">
<feFlood flood-opacity="0" result="BackgroundImageFix"/>
<feColorMatrix in="SourceAlpha" type="matrix" values="0 0 0 0 0 0 0 0 0 0 0 0 0 0 0 0 0 0 127 0" result="hardAlpha"/>
<feOffset dx="4" dy="5"/>
<feGaussianBlur stdDeviation="30.5"/>
<feComposite in2="hardAlpha" operator="out"/>
<feColorMatrix type="matrix" values="0 0 0 0 0 0 0 0 0 0 0 0 0 0 0 0 0 0 0.1 0"/>
<feBlend mode="normal" in2="BackgroundImageFix" result="effect1_dropShadow_251_257"/>
<feBlend mode="normal" in="SourceGraphic" in2="effect1_dropShadow_251_257" result="shape"/>
</filter>
<filter id="filter3_d_251_257" x="102" y="217.227" width="144.291" height="158.773" filterUnits="userSpaceOnUse" color-interpolation-filters="sRGB">
<feFlood flood-opacity="0" result="BackgroundImageFix"/>
<feColorMatrix in="SourceAlpha" type="matrix" values="0 0 0 0 0 0 0 0 0 0 0 0 0 0 0 0 0 0 127 0" result="hardAlpha"/>
<feOffset dx="4" dy="5"/>
<feGaussianBlur stdDeviation="30.5"/>
<feComposite in2="hardAlpha" operator="out"/>
<feColorMatrix type="matrix" values="0 0 0 0 0 0 0 0 0 0 0 0 0 0 0 0 0 0 0.1 0"/>
<feBlend mode="normal" in2="BackgroundImageFix" result="effect1_dropShadow_251_257"/>
<feBlend mode="normal" in="SourceGraphic" in2="effect1_dropShadow_251_257" result="shape"/>
</filter>
<filter id="filter4_d_251_257" x="140" y="0" width="206.71" height="224" filterUnits="userSpaceOnUse" color-interpolation-filters="sRGB">
<feFlood flood-opacity="0" result="BackgroundImageFix"/>
<feColorMatrix in="SourceAlpha" type="matrix" values="0 0 0 0 0 0 0 0 0 0 0 0 0 0 0 0 0 0 127 0" result="hardAlpha"/>
<feMorphology radius="2" operator="dilate" in="SourceAlpha" result="effect1_dropShadow_251_257"/>
<feOffset dx="1" dy="4"/>
<feGaussianBlur stdDeviation="4"/>
<feComposite in2="hardAlpha" operator="out"/>
<feColorMatrix type="matrix" values="0 0 0 0 0 0 0 0 0 0 0 0 0 0 0 0 0 0 0.22 0"/>
<feBlend mode="normal" in2="BackgroundImageFix" result="effect1_dropShadow_251_257"/>
<feBlend mode="normal" in="SourceGraphic" in2="effect1_dropShadow_251_257" result="shape"/>
</filter>
<filter id="filter5_d_251_257" x="172" y="12" width="142.71" height="200" filterUnits="userSpaceOnUse" color-interpolation-filters="sRGB">
<feFlood flood-opacity="0" result="BackgroundImageFix"/>
<feColorMatrix in="SourceAlpha" type="matrix" values="0 0 0 0 0 0 0 0 0 0 0 0 0 0 0 0 0 0 127 0" result="hardAlpha"/>
<feMorphology radius="2" operator="dilate" in="SourceAlpha" result="effect1_dropShadow_251_257"/>
<feOffset dx="1" dy="4"/>
<feGaussianBlur stdDeviation="4"/>
<feComposite in2="hardAlpha" operator="out"/>
<feColorMatrix type="matrix" values="0 0 0 0 0 0 0 0 0 0 0 0 0 0 0 0 0 0 0.67 0"/>
<feBlend mode="normal" in2="BackgroundImageFix" result="effect1_dropShadow_251_257"/>
<feBlend mode="normal" in="SourceGraphic" in2="effect1_dropShadow_251_257" result="shape"/>
</filter>
<filter id="filter6_d_251_257" x="124" y="75.8088" width="162.123" height="188.191" filterUnits="userSpaceOnUse" color-interpolation-filters="sRGB">
<feFlood flood-opacity="0" result="BackgroundImageFix"/>
<feColorMatrix in="SourceAlpha" type="matrix" values="0 0 0 0 0 0 0 0 0 0 0 0 0 0 0 0 0 0 127 0" result="hardAlpha"/>
<feOffset dx="4" dy="5"/>
<feGaussianBlur stdDeviation="30.5"/>
<feComposite in2="hardAlpha" operator="out"/>
<feColorMatrix type="matrix" values="0 0 0 0 0 0 0 0 0 0 0 0 0 0 0 0 0 0 0.1 0"/>
<feBlend mode="normal" in2="BackgroundImageFix" result="effect1_dropShadow_251_257"/>
<feBlend mode="normal" in="SourceGraphic" in2="effect1_dropShadow_251_257" result="shape"/>
</filter>
<linearGradient id="paint0_linear_251_257" x1="398.721" y1="20" x2="398.721" y2="192" gradientUnits="userSpaceOnUse">
<stop stop-color="#1E999F" stop-opacity="0.41"/>
<stop offset="1" stop-color="#1A8489" stop-opacity="0.29"/>
</linearGradient>
<linearGradient id="paint1_linear_251_257" x1="364.997" y1="140.362" x2="318.745" y2="64.3042" gradientUnits="userSpaceOnUse">
<stop stop-color="#1E999F"/>
<stop offset="1" stop-color="#0B0F60"/>
</linearGradient>
<linearGradient id="paint2_linear_251_257" x1="446.441" y1="83.5738" x2="375.031" y2="154.356" gradientUnits="userSpaceOnUse">
<stop stop-color="#1E999F"/>
<stop offset="1" stop-color="#0B0F60"/>
</linearGradient>
<linearGradient id="paint3_linear_251_257" x1="355.958" y1="41.797" x2="446.512" y2="89.7911" gradientUnits="userSpaceOnUse">
<stop stop-color="#1E999F"/>
<stop offset="1" stop-color="#0B0F60"/>
</linearGradient>
<linearGradient id="paint4_linear_251_257" x1="351" y1="148.973" x2="384.222" y2="148.973" gradientUnits="userSpaceOnUse">
<stop stop-color="#1E999F"/>
<stop offset="1" stop-color="#065289"/>
</linearGradient>
<linearGradient id="paint5_linear_251_257" x1="79.7206" y1="54" x2="79.7206" y2="226" gradientUnits="userSpaceOnUse">
<stop stop-color="#D9D9D9" stop-opacity="0.45"/>
<stop offset="1" stop-color="#1A70A0" stop-opacity="0"/>
</linearGradient>
<linearGradient id="paint6_linear_251_257" x1="45.9973" y1="174.362" x2="-0.254501" y2="98.3042" gradientUnits="userSpaceOnUse">
<stop stop-color="#4E54EA"/>
<stop offset="1" stop-color="#0B0F60"/>
</linearGradient>
<linearGradient id="paint7_linear_251_257" x1="127.441" y1="117.574" x2="56.0312" y2="188.356" gradientUnits="userSpaceOnUse">
<stop stop-color="#4E54EA"/>
<stop offset="1" stop-color="#0B0F60"/>
</linearGradient>
<linearGradient id="paint8_linear_251_257" x1="36.9579" y1="75.797" x2="127.513" y2="123.791" gradientUnits="userSpaceOnUse">
<stop stop-color="#4E54EA"/>
<stop offset="1" stop-color="#0B0F60"/>
</linearGradient>
<linearGradient id="paint9_linear_251_257" x1="33.9632" y1="161.952" x2="83.9322" y2="173.56" gradientUnits="userSpaceOnUse">
<stop stop-color="#4E54EA"/>
<stop offset="1" stop-color="#0B0F60"/>
</linearGradient>
<linearGradient id="paint10_linear_251_257" x1="313.086" y1="182" x2="313.086" y2="314" gradientUnits="userSpaceOnUse">
<stop stop-color="white" stop-opacity="0.55"/>
<stop offset="1" stop-color="#065289" stop-opacity="0"/>
</linearGradient>
<linearGradient id="paint11_linear_251_257" x1="288.998" y1="272.545" x2="255.961" y2="218.217" gradientUnits="userSpaceOnUse">
<stop stop-color="#0A91F1"/>
<stop offset="1" stop-color="#0B0F60"/>
</linearGradient>
<linearGradient id="paint12_linear_251_257" x1="347.172" y1="231.981" x2="296.166" y2="282.54" gradientUnits="userSpaceOnUse">
<stop stop-color="#0A91F1"/>
<stop offset="1" stop-color="#0B0F60"/>
</linearGradient>
<linearGradient id="paint13_linear_251_257" x1="282.541" y1="202.141" x2="347.223" y2="236.422" gradientUnits="userSpaceOnUse">
<stop stop-color="#0A91F1"/>
<stop offset="1" stop-color="#0B0F60"/>
</linearGradient>
<linearGradient id="paint14_linear_251_257" x1="290.145" y1="273.085" x2="307.662" y2="299.473" gradientUnits="userSpaceOnUse">
<stop stop-color="#0C8AE8"/>
<stop offset="1" stop-color="#0B0F60"/>
</linearGradient>
<linearGradient id="paint15_linear_251_257" x1="193.086" y1="194" x2="193.086" y2="326" gradientUnits="userSpaceOnUse">
<stop stop-color="#531E7B" stop-opacity="0.56"/>
<stop offset="1" stop-color="#A96FD4" stop-opacity="0.13"/>
</linearGradient>
<linearGradient id="paint16_linear_251_257" x1="168.998" y1="284.544" x2="135.961" y2="230.217" gradientUnits="userSpaceOnUse">
<stop stop-color="#6D28A1"/>
<stop offset="1" stop-color="#0B0F60"/>
</linearGradient>
<linearGradient id="paint17_linear_251_257" x1="227.172" y1="243.981" x2="176.165" y2="294.54" gradientUnits="userSpaceOnUse">
<stop stop-color="#6D28A1"/>
<stop offset="1" stop-color="#0B0F60"/>
</linearGradient>
<linearGradient id="paint18_linear_251_257" x1="164.712" y1="310" x2="138.783" y2="274.977" gradientUnits="userSpaceOnUse">
<stop stop-color="#6D28A1"/>
<stop offset="1" stop-color="#0B0F60"/>
</linearGradient>
<linearGradient id="paint19_linear_251_257" x1="242.355" y1="6" x2="242.355" y2="210" gradientUnits="userSpaceOnUse">
<stop stop-color="#70C7F9" stop-opacity="0.38"/>
<stop offset="1" stop-color="#9480E2" stop-opacity="0"/>
</linearGradient>
<linearGradient id="paint20_linear_251_257" x1="186.809" y1="52.1057" x2="211.245" y2="143.397" gradientUnits="userSpaceOnUse">
<stop stop-color="#0A91F1"/>
<stop offset="1" stop-color="#065289"/>
</linearGradient>
<linearGradient id="paint21_linear_251_257" x1="215.344" y1="89.5345" x2="309.417" y2="89.5345" gradientUnits="userSpaceOnUse">
<stop stop-color="#B23AE8"/>
<stop offset="1" stop-color="#530B99"/>
</linearGradient>
<linearGradient id="paint22_linear_251_257" x1="181.815" y1="51.5449" x2="275.889" y2="51.5449" gradientUnits="userSpaceOnUse">
<stop stop-color="#4E54EA"/>
<stop offset="1" stop-color="#531E7B"/>
</linearGradient>
<linearGradient id="paint23_linear_251_257" x1="149" y1="108" x2="347.769" y2="108" gradientUnits="userSpaceOnUse">
<stop stop-color="#0A91F1"/>
<stop offset="1" stop-color="#065289"/>
</linearGradient>
<clipPath id="clip0_251_257">
<rect x="319" y="20" width="159.441" height="172" rx="8" fill="white"/>
</clipPath>
<clipPath id="clip1_251_257">
<rect y="54" width="159.441" height="172" rx="8" fill="white"/>
</clipPath>
<clipPath id="clip2_251_257">
<rect x="149" y="6" width="186.71" height="204" rx="8" fill="white"/>
</clipPath>
</defs>
</svg>
