<svg width="66" height="64" viewBox="0 0 66 64" fill="none" xmlns="http://www.w3.org/2000/svg">
<g clip-path="url(#clip0_254_263)">
<rect x="0.5" width="64.7226" height="64" rx="8" fill="url(#paint0_linear_254_263)" style="mix-blend-mode:plus-darker"/>
<path d="M34.5956 37.8012L25.6581 42.972C21.6842 45.2713 16.7173 42.3975 16.7173 37.8001V24.3269C16.7173 19.7288 21.6842 16.8553 25.6581 19.1542V32.6266C25.6581 37.2233 30.6224 40.0967 34.5956 37.8012Z" fill="url(#paint1_linear_254_263)"/>
<path d="M46.2424 31.0629L34.599 37.7993H34.5956C30.6225 40.0948 25.6582 37.2214 25.6582 32.6247L37.3012 25.8906C41.2751 23.5917 41.2751 17.8441 37.3012 15.5452L46.2421 20.7179C50.2163 23.0168 50.2159 28.764 46.2424 31.0629Z" fill="url(#paint2_linear_254_263)"/>
<path d="M37.3015 25.8906L25.6581 19.1542C21.6842 16.8553 16.7173 19.7288 16.7173 24.3269V13.9808C16.7173 9.38333 21.6842 6.50914 25.6574 8.8103L37.3015 15.5452C41.2754 17.8441 41.2754 23.5917 37.3015 25.8906Z" fill="url(#paint3_linear_254_263)"/>
<g filter="url(#filter0_d_254_263)">
<path d="M25.4408 48.6339V43.521C25.4408 43.521 29.3982 41.3641 25.4401 43.5214C21.4819 45.6786 16.5 42.9465 16.5 38.349V48.6339V51.5203C16.5 52.7084 16.971 53.8478 17.8094 54.688C18.6477 55.5281 19.7848 56 20.9704 56C22.156 56 23.2931 55.5281 24.1315 54.688C24.9698 53.8478 25.4408 52.7084 25.4408 51.5203L25.4408 48.6339Z" fill="url(#paint4_linear_254_263)"/>
</g>
<g filter="url(#filter1_d_254_263)">
<rect x="28.5" y="49" width="8" height="7" rx="1" fill="url(#paint5_linear_254_263)" shape-rendering="crispEdges"/>
<path d="M30.8793 55V50.6364H33.7685V51.397H31.8018V52.4368H33.5767V53.1974H31.8018V55H30.8793Z" fill="white"/>
</g>
</g>
<defs>
<filter id="filter0_d_254_263" x="-40.5" y="-17.651" width="132.699" height="139.651" filterUnits="userSpaceOnUse" color-interpolation-filters="sRGB">
<feFlood flood-opacity="0" result="BackgroundImageFix"/>
<feColorMatrix in="SourceAlpha" type="matrix" values="0 0 0 0 0 0 0 0 0 0 0 0 0 0 0 0 0 0 127 0" result="hardAlpha"/>
<feOffset dx="4" dy="5"/>
<feGaussianBlur stdDeviation="30.5"/>
<feComposite in2="hardAlpha" operator="out"/>
<feColorMatrix type="matrix" values="0 0 0 0 0 0 0 0 0 0 0 0 0 0 0 0 0 0 0.1 0"/>
<feBlend mode="normal" in2="BackgroundImageFix" result="effect1_dropShadow_254_263"/>
<feBlend mode="normal" in="SourceGraphic" in2="effect1_dropShadow_254_263" result="shape"/>
</filter>
<filter id="filter1_d_254_263" x="24.5" y="49" width="16" height="15" filterUnits="userSpaceOnUse" color-interpolation-filters="sRGB">
<feFlood flood-opacity="0" result="BackgroundImageFix"/>
<feColorMatrix in="SourceAlpha" type="matrix" values="0 0 0 0 0 0 0 0 0 0 0 0 0 0 0 0 0 0 127 0" result="hardAlpha"/>
<feOffset dy="4"/>
<feGaussianBlur stdDeviation="2"/>
<feComposite in2="hardAlpha" operator="out"/>
<feColorMatrix type="matrix" values="0 0 0 0 0 0 0 0 0 0 0 0 0 0 0 0 0 0 0.25 0"/>
<feBlend mode="normal" in2="BackgroundImageFix" result="effect1_dropShadow_254_263"/>
<feBlend mode="normal" in="SourceGraphic" in2="effect1_dropShadow_254_263" result="shape"/>
</filter>
<linearGradient id="paint0_linear_254_263" x1="4.57176" y1="7.11007" x2="98.2826" y2="45.2435" gradientUnits="userSpaceOnUse">
<stop stop-color="#4E54EA"/>
<stop offset="1" stop-color="#0B0F60"/>
</linearGradient>
<linearGradient id="paint1_linear_254_263" x1="21.299" y1="43.7813" x2="5.44122" y2="17.7043" gradientUnits="userSpaceOnUse">
<stop stop-color="#4E54EA"/>
<stop offset="1" stop-color="#0B0F60"/>
</linearGradient>
<linearGradient id="paint2_linear_254_263" x1="49.2225" y1="24.311" x2="24.7393" y2="48.579" gradientUnits="userSpaceOnUse">
<stop stop-color="#4E54EA"/>
<stop offset="1" stop-color="#0B0F60"/>
</linearGradient>
<linearGradient id="paint3_linear_254_263" x1="18.1998" y1="9.98755" x2="49.2471" y2="26.4427" gradientUnits="userSpaceOnUse">
<stop stop-color="#4E54EA"/>
<stop offset="1" stop-color="#0B0F60"/>
</linearGradient>
<linearGradient id="paint4_linear_254_263" x1="17.1731" y1="39.5264" x2="34.3053" y2="43.5064" gradientUnits="userSpaceOnUse">
<stop stop-color="#4E54EA"/>
<stop offset="1" stop-color="#0B0F60"/>
</linearGradient>
<linearGradient id="paint5_linear_254_263" x1="28.5" y1="52.5" x2="37.0167" y2="52.5" gradientUnits="userSpaceOnUse">
<stop stop-color="#3338B1"/>
<stop offset="1" stop-color="#4F54EB"/>
</linearGradient>
<clipPath id="clip0_254_263">
<rect x="0.5" width="64.7226" height="64" rx="8" fill="white"/>
</clipPath>
</defs>
</svg>
