<svg width="66" height="64" viewBox="0 0 66 64" fill="none" xmlns="http://www.w3.org/2000/svg">
<g clip-path="url(#clip0_274_224)">
<rect x="0.5" width="64.7229" height="64" rx="8" fill="url(#paint0_linear_274_224)" style="mix-blend-mode:lighten"/>
<path d="M34.5956 37.8012L25.6581 42.972C21.6842 45.2713 16.7173 42.3975 16.7173 37.8001V24.3269C16.7173 19.7288 21.6842 16.8553 25.6581 19.1542V32.6266C25.6581 37.2233 30.6224 40.0967 34.5956 37.8012Z" fill="url(#paint1_linear_274_224)"/>
<path d="M46.2427 31.0629L34.5993 37.7993H34.5959C30.6228 40.0948 25.6584 37.2214 25.6584 32.6247L37.3015 25.8906C41.2754 23.5917 41.2754 17.8441 37.3015 15.5452L46.2423 20.7179C50.2166 23.0168 50.2162 28.764 46.2427 31.0629Z" fill="url(#paint2_linear_274_224)"/>
<path d="M37.3015 25.8906L25.6581 19.1542C21.6842 16.8553 16.7173 19.7288 16.7173 24.3269V13.9808C16.7173 9.38333 21.6842 6.50914 25.6574 8.8103L37.3015 15.5452C41.2754 17.8441 41.2754 23.5917 37.3015 25.8906Z" fill="url(#paint3_linear_274_224)"/>
<g filter="url(#filter0_d_274_224)">
<path d="M25.4408 48.6338V43.5209C25.4408 43.5209 29.3982 41.364 25.4401 43.5213C21.4819 45.6785 16.5 42.9463 16.5 38.3489V48.6338V51.5202C16.5 52.7083 16.971 53.8477 17.8094 54.6878C18.6477 55.5279 19.7848 55.9999 20.9704 55.9999C22.156 55.9999 23.2931 55.5279 24.1315 54.6878C24.9698 53.8477 25.4408 52.7083 25.4408 51.5202L25.4408 48.6338Z" fill="url(#paint4_linear_274_224)"/>
</g>
<g filter="url(#filter1_d_274_224)">
<rect x="27" y="49" width="17" height="7" rx="1" fill="url(#paint5_linear_274_224)" shape-rendering="crispEdges"/>
<path d="M29.3793 55V50.6364H31.1009C31.4318 50.6364 31.7138 50.6996 31.9467 50.826C32.1797 50.951 32.3572 51.125 32.4794 51.348C32.603 51.5696 32.6648 51.8253 32.6648 52.1151C32.6648 52.4048 32.6023 52.6605 32.4773 52.8821C32.3523 53.1037 32.1712 53.2763 31.9339 53.3999C31.6982 53.5234 31.4126 53.5852 31.0774 53.5852H29.9801V52.8459H30.9283C31.1058 52.8459 31.2521 52.8153 31.3672 52.7543C31.4837 52.6918 31.5703 52.6058 31.6271 52.4964C31.6854 52.3857 31.7145 52.2585 31.7145 52.1151C31.7145 51.9702 31.6854 51.8437 31.6271 51.7358C31.5703 51.6264 31.4837 51.5419 31.3672 51.4822C31.2507 51.4212 31.103 51.3906 30.924 51.3906H30.3018V55H29.3793ZM37.274 52.8182C37.274 53.294 37.1838 53.6989 37.0034 54.0327C36.8244 54.3665 36.5801 54.6214 36.2704 54.7976C35.9622 54.9723 35.6156 55.0597 35.2306 55.0597C34.8429 55.0597 34.4949 54.9716 34.1866 54.7955C33.8784 54.6193 33.6348 54.3643 33.4558 54.0305C33.2768 53.6967 33.1873 53.2926 33.1873 52.8182C33.1873 52.3423 33.2768 51.9375 33.4558 51.6037C33.6348 51.2699 33.8784 51.0156 34.1866 50.8409C34.4949 50.6648 34.8429 50.5767 35.2306 50.5767C35.6156 50.5767 35.9622 50.6648 36.2704 50.8409C36.5801 51.0156 36.8244 51.2699 37.0034 51.6037C37.1838 51.9375 37.274 52.3423 37.274 52.8182ZM36.3386 52.8182C36.3386 52.5099 36.2924 52.25 36.2001 52.0384C36.1092 51.8267 35.9806 51.6662 35.8145 51.5568C35.6483 51.4474 35.4537 51.3928 35.2306 51.3928C35.0076 51.3928 34.813 51.4474 34.6468 51.5568C34.4806 51.6662 34.3514 51.8267 34.2591 52.0384C34.1681 52.25 34.1227 52.5099 34.1227 52.8182C34.1227 53.1264 34.1681 53.3864 34.2591 53.598C34.3514 53.8097 34.4806 53.9702 34.6468 54.0795C34.813 54.1889 35.0076 54.2436 35.2306 54.2436C35.4537 54.2436 35.6483 54.1889 35.8145 54.0795C35.9806 53.9702 36.1092 53.8097 36.2001 53.598C36.2924 53.3864 36.3386 53.1264 36.3386 52.8182ZM40.3246 51.8913C40.3075 51.7195 40.2344 51.5859 40.1051 51.4908C39.9759 51.3956 39.8004 51.348 39.5788 51.348C39.4283 51.348 39.3011 51.3693 39.1974 51.4119C39.0938 51.4531 39.0142 51.5107 38.9588 51.5845C38.9048 51.6584 38.8778 51.7422 38.8778 51.8359C38.875 51.9141 38.8913 51.9822 38.9268 52.0405C38.9638 52.0987 39.0142 52.1491 39.0781 52.1918C39.142 52.233 39.2159 52.2692 39.2997 52.3004C39.3835 52.3303 39.473 52.3558 39.5682 52.3771L39.9602 52.4709C40.1506 52.5135 40.3253 52.5703 40.4844 52.6413C40.6435 52.7124 40.7813 52.7997 40.8977 52.9034C41.0142 53.0071 41.1044 53.1293 41.1683 53.2699C41.2337 53.4105 41.267 53.5717 41.2685 53.7536C41.267 54.0206 41.1989 54.2521 41.0639 54.4482C40.9304 54.6428 40.7372 54.794 40.4844 54.902C40.233 55.0085 39.9297 55.0618 39.5746 55.0618C39.2223 55.0618 38.9155 55.0078 38.6541 54.8999C38.3942 54.7919 38.1911 54.6321 38.0447 54.4205C37.8999 54.2074 37.8239 53.9439 37.8168 53.63H38.7095C38.7195 53.7763 38.7614 53.8984 38.8352 53.9964C38.9105 54.093 39.0107 54.1662 39.1357 54.2159C39.2621 54.2642 39.4048 54.2884 39.5639 54.2884C39.7202 54.2884 39.8558 54.2656 39.9709 54.2202C40.0874 54.1747 40.1776 54.1115 40.2415 54.0305C40.3054 53.9496 40.3374 53.8565 40.3374 53.7514C40.3374 53.6534 40.3082 53.571 40.25 53.5043C40.1932 53.4375 40.1094 53.3807 39.9986 53.3338C39.8892 53.2869 39.755 53.2443 39.5959 53.206L39.1207 53.0866C38.7528 52.9972 38.4624 52.8572 38.2493 52.6669C38.0362 52.4766 37.9304 52.2202 37.9318 51.8977C37.9304 51.6335 38.0007 51.4027 38.1428 51.2053C38.2862 51.0078 38.483 50.8537 38.733 50.7429C38.983 50.6321 39.267 50.5767 39.5852 50.5767C39.9091 50.5767 40.1918 50.6321 40.4332 50.7429C40.6761 50.8537 40.8651 51.0078 41 51.2053C41.1349 51.4027 41.2045 51.6314 41.2088 51.8913H40.3246Z" fill="white"/>
</g>
</g>
<defs>
<filter id="filter0_d_274_224" x="-40.5" y="-17.6511" width="132.699" height="139.651" filterUnits="userSpaceOnUse" color-interpolation-filters="sRGB">
<feFlood flood-opacity="0" result="BackgroundImageFix"/>
<feColorMatrix in="SourceAlpha" type="matrix" values="0 0 0 0 0 0 0 0 0 0 0 0 0 0 0 0 0 0 127 0" result="hardAlpha"/>
<feOffset dx="4" dy="5"/>
<feGaussianBlur stdDeviation="30.5"/>
<feComposite in2="hardAlpha" operator="out"/>
<feColorMatrix type="matrix" values="0 0 0 0 0 0 0 0 0 0 0 0 0 0 0 0 0 0 0.1 0"/>
<feBlend mode="normal" in2="BackgroundImageFix" result="effect1_dropShadow_274_224"/>
<feBlend mode="normal" in="SourceGraphic" in2="effect1_dropShadow_274_224" result="shape"/>
</filter>
<filter id="filter1_d_274_224" x="23" y="49" width="25" height="15" filterUnits="userSpaceOnUse" color-interpolation-filters="sRGB">
<feFlood flood-opacity="0" result="BackgroundImageFix"/>
<feColorMatrix in="SourceAlpha" type="matrix" values="0 0 0 0 0 0 0 0 0 0 0 0 0 0 0 0 0 0 127 0" result="hardAlpha"/>
<feOffset dy="4"/>
<feGaussianBlur stdDeviation="2"/>
<feComposite in2="hardAlpha" operator="out"/>
<feColorMatrix type="matrix" values="0 0 0 0 0 0 0 0 0 0 0 0 0 0 0 0 0 0 0.25 0"/>
<feBlend mode="normal" in2="BackgroundImageFix" result="effect1_dropShadow_274_224"/>
<feBlend mode="normal" in="SourceGraphic" in2="effect1_dropShadow_274_224" result="shape"/>
</filter>
<linearGradient id="paint0_linear_274_224" x1="3.50006" y1="3.49989" x2="90.4842" y2="51.2654" gradientUnits="userSpaceOnUse">
<stop stop-color="#0A83E2"/>
<stop offset="1" stop-color="#0B4198" stop-opacity="0.29"/>
</linearGradient>
<linearGradient id="paint1_linear_274_224" x1="21.299" y1="43.7814" x2="5.44121" y2="17.7043" gradientUnits="userSpaceOnUse">
<stop stop-color="#0A91F1"/>
<stop offset="1" stop-color="#0B0F60"/>
</linearGradient>
<linearGradient id="paint2_linear_274_224" x1="49.2228" y1="24.311" x2="24.7395" y2="48.5791" gradientUnits="userSpaceOnUse">
<stop stop-color="#0A91F1"/>
<stop offset="1" stop-color="#0B0F60"/>
</linearGradient>
<linearGradient id="paint3_linear_274_224" x1="18.1998" y1="9.98755" x2="49.2471" y2="26.4427" gradientUnits="userSpaceOnUse">
<stop stop-color="#0A91F1"/>
<stop offset="1" stop-color="#0B0F60"/>
</linearGradient>
<linearGradient id="paint4_linear_274_224" x1="21.8498" y1="44.0407" x2="30.2579" y2="56.7071" gradientUnits="userSpaceOnUse">
<stop stop-color="#0C8AE8"/>
<stop offset="1" stop-color="#0B0F60"/>
</linearGradient>
<linearGradient id="paint5_linear_274_224" x1="27" y1="52.5" x2="45.0979" y2="52.5" gradientUnits="userSpaceOnUse">
<stop stop-color="#0A91F1"/>
<stop offset="1" stop-color="#065289"/>
</linearGradient>
<clipPath id="clip0_274_224">
<rect x="0.5" width="64.7229" height="64" rx="8" fill="white"/>
</clipPath>
</defs>
</svg>
