<svg width="300" height="300" viewBox="0 0 217 128" fill="none" xmlns="http://www.w3.org/2000/svg">
<rect x="59.9404" y="1.26187" width="115.799" height="86.349" rx="3" stroke="url(#paint0_linear_102_497)" stroke-width="2"/>
<path d="M59.6903 88.1453C60.2045 87.146 61.234 86.5179 62.3579 86.5179H174.387C175.534 86.5179 176.581 87.1718 177.084 88.2026L193.689 122.243C194.661 124.235 193.21 126.558 190.992 126.558H44.8423C42.597 126.558 41.1474 124.182 42.1748 122.185L59.6903 88.1453Z" stroke="url(#paint1_linear_102_497)" stroke-width="2"/>
<path d="M108.524 40.5154L105.659 43.3961L108.533 46.263" stroke="#1E999F" stroke-width="1.2" stroke-linecap="round" stroke-linejoin="round"/>
<rect x="112.508" y="37.6514" width="1.43692" height="11.4954" rx="0.718461" transform="rotate(15 112.508 37.6514)" fill="url(#paint2_linear_102_497)"/>
<path d="M114.906 46.263L117.771 43.3823L114.896 40.5153" stroke="#1E999F" stroke-width="1.2" stroke-linecap="round" stroke-linejoin="round"/>
<rect x="1.46162" y="44.1822" width="88.2648" height="65.7486" rx="3.1" transform="rotate(-6.44288 1.46162 44.1822)" stroke="url(#paint3_linear_102_497)" stroke-width="1.8"/>
<rect x="168.402" y="24.6305" width="47.3486" height="88.7786" rx="1" transform="rotate(2.97003 168.402 24.6305)" stroke="url(#paint4_linear_102_497)" stroke-width="1.4"/>
<rect x="183.842" y="110.665" width="7.59551" height="0.295929" rx="0.147964" transform="rotate(2.97003 183.842 110.665)" fill="#065289" stroke="url(#paint5_linear_102_497)" stroke-width="0.295929"/>
<rect x="186.22" y="29.7045" width="11.2372" height="1.76743" rx="0.7" transform="rotate(2.97003 186.22 29.7045)" fill="white" stroke="url(#paint6_linear_102_497)" stroke-width="0.6"/>
<rect x="47.0589" y="26.0371" width="11.7808" height="6.11902" transform="rotate(15 47.0589 26.0371)" stroke="url(#paint7_linear_102_497)" stroke-width="0.4"/>
<path d="M52.0207 30.5304L47.2183 26.529L58.1511 29.4584L52.0207 30.5304Z" stroke="url(#paint8_linear_102_497)" stroke-width="0.4"/>
<path d="M201.186 126.026C200.562 126.386 199.979 126.585 199.437 126.623C198.9 126.658 198.41 126.553 197.966 126.309C197.527 126.062 197.139 125.708 196.803 125.247C196.755 125.176 196.693 125.081 196.617 124.963C196.547 124.841 196.472 124.711 196.393 124.574C196.314 124.437 196.239 124.307 196.169 124.185C196.104 124.061 196.054 123.963 196.02 123.891C195.858 123.526 195.757 123.154 195.715 122.777C195.678 122.396 195.714 122.023 195.82 121.659C195.924 121.289 196.107 120.94 196.369 120.613C196.636 120.282 196.994 119.987 197.444 119.728C197.972 119.422 198.457 119.224 198.897 119.132C199.337 119.04 199.739 119.04 200.103 119.133C200.469 119.218 200.799 119.38 201.092 119.619C201.386 119.859 201.651 120.153 201.888 120.503C201.966 120.613 202.043 120.734 202.119 120.866C202.192 120.993 202.26 121.116 202.322 121.236C202.386 121.347 202.435 121.438 202.469 121.51C202.603 121.778 202.666 122.034 202.659 122.278C202.657 122.519 202.595 122.734 202.472 122.925C202.355 123.113 202.191 123.267 201.979 123.39C201.805 123.49 201.64 123.553 201.486 123.579C201.329 123.6 201.192 123.601 201.076 123.583C200.96 123.566 200.867 123.545 200.797 123.522C200.797 123.607 200.783 123.71 200.755 123.832C200.726 123.954 200.659 124.081 200.552 124.214C200.45 124.343 200.286 124.473 200.058 124.604C199.667 124.83 199.275 124.866 198.883 124.712C198.488 124.552 198.146 124.221 197.856 123.719C197.566 123.217 197.448 122.756 197.502 122.337C197.556 121.918 197.779 121.596 198.17 121.37C198.381 121.248 198.569 121.189 198.734 121.193C198.895 121.191 199.044 121.218 199.181 121.272L199.122 121.169C199.088 121.111 199.079 121.053 199.095 120.995C199.111 120.936 199.145 120.892 199.198 120.861L199.563 120.651C199.615 120.62 199.671 120.613 199.729 120.628C199.788 120.644 199.834 120.681 199.867 120.739L200.806 122.365C200.913 122.55 201.033 122.667 201.168 122.716C201.302 122.766 201.435 122.752 201.567 122.676C201.689 122.606 201.763 122.52 201.79 122.42C201.817 122.32 201.816 122.222 201.788 122.125C201.763 122.02 201.729 121.93 201.686 121.856C201.625 121.751 201.551 121.617 201.465 121.455C201.379 121.294 201.279 121.133 201.165 120.973C200.909 120.578 200.627 120.29 200.318 120.109C200.006 119.922 199.65 119.856 199.252 119.91C198.858 119.961 198.394 120.141 197.86 120.449C197.416 120.706 197.088 120.997 196.875 121.325C196.664 121.644 196.556 121.988 196.551 122.357C196.543 122.722 196.625 123.101 196.796 123.496C196.837 123.591 196.903 123.723 196.992 123.89C197.087 124.054 197.183 124.22 197.28 124.389C197.38 124.55 197.465 124.678 197.533 124.772C197.926 125.307 198.391 125.63 198.929 125.743C199.471 125.852 200.086 125.709 200.774 125.312C201.117 125.114 201.376 124.933 201.549 124.769C201.731 124.608 201.859 124.457 201.932 124.315C202.014 124.176 202.082 124.049 202.135 123.934C202.159 123.878 202.181 123.83 202.2 123.791C202.22 123.751 202.256 123.716 202.309 123.686L202.808 123.397C202.861 123.367 202.917 123.359 202.975 123.375C203.034 123.391 203.08 123.427 203.113 123.486C203.125 123.507 203.132 123.531 203.134 123.558C203.133 123.58 203.131 123.602 203.13 123.624C203.079 123.879 202.984 124.141 202.845 124.412C202.708 124.689 202.507 124.963 202.242 125.236C201.977 125.509 201.625 125.772 201.186 126.026ZM199.773 123.817C200.001 123.686 200.123 123.513 200.14 123.299C200.157 123.085 200.08 122.829 199.909 122.533C199.739 122.237 199.556 122.043 199.362 121.951C199.164 121.853 198.952 121.87 198.725 122.001C198.503 122.13 198.382 122.305 198.362 122.528C198.345 122.742 198.422 122.997 198.593 123.293C198.697 123.473 198.812 123.618 198.939 123.728C199.066 123.838 199.198 123.902 199.336 123.921C199.48 123.938 199.625 123.903 199.773 123.817Z" fill="url(#paint9_linear_102_497)"/>
<defs>
<linearGradient id="paint0_linear_102_497" x1="58.9404" y1="44.4364" x2="184.347" y2="44.4364" gradientUnits="userSpaceOnUse">
<stop stop-color="#4E54EA"/>
<stop offset="1" stop-color="#531E7B"/>
</linearGradient>
<linearGradient id="paint1_linear_102_497" x1="38.2856" y1="106.538" x2="207.67" y2="106.538" gradientUnits="userSpaceOnUse">
<stop stop-color="#B23AE8"/>
<stop offset="1" stop-color="#530B99"/>
</linearGradient>
<linearGradient id="paint2_linear_102_497" x1="112.508" y1="43.3991" x2="114.038" y2="43.3991" gradientUnits="userSpaceOnUse">
<stop stop-color="#0A91F1"/>
<stop offset="1" stop-color="#065289"/>
</linearGradient>
<linearGradient id="paint3_linear_102_497" x1="0.466306" y1="57.8199" x2="11.6331" y2="116.312" gradientUnits="userSpaceOnUse">
<stop stop-color="#1E999F"/>
<stop offset="1" stop-color="#065289"/>
</linearGradient>
<linearGradient id="paint4_linear_102_497" x1="168.402" y1="43.5971" x2="199.375" y2="108.492" gradientUnits="userSpaceOnUse">
<stop stop-color="#1E999F"/>
<stop offset="1" stop-color="#065289"/>
</linearGradient>
<linearGradient id="paint5_linear_102_497" x1="183.702" y1="110.636" x2="183.712" y2="111.167" gradientUnits="userSpaceOnUse">
<stop stop-color="#1E999F"/>
<stop offset="1" stop-color="#065289"/>
</linearGradient>
<linearGradient id="paint6_linear_102_497" x1="185.936" y1="29.8952" x2="186.043" y2="32.0144" gradientUnits="userSpaceOnUse">
<stop stop-color="#1E999F"/>
<stop offset="1" stop-color="#065289"/>
</linearGradient>
<linearGradient id="paint7_linear_102_497" x1="46.9175" y1="27.1849" x2="47.7" y2="32.929" gradientUnits="userSpaceOnUse">
<stop stop-color="#1E999F"/>
<stop offset="1" stop-color="#065289"/>
</linearGradient>
<linearGradient id="paint8_linear_102_497" x1="47.0733" y1="27.0701" x2="46.5999" y2="29.3712" gradientUnits="userSpaceOnUse">
<stop stop-color="#1E999F"/>
<stop offset="1" stop-color="#065289"/>
</linearGradient>
<linearGradient id="paint9_linear_102_497" x1="196.389" y1="124.566" x2="202.67" y2="120.94" gradientUnits="userSpaceOnUse">
<stop stop-color="#1E999F"/>
<stop offset="1" stop-color="#065289"/>
</linearGradient>
</defs>
</svg>
