<svg width="300" height="300" viewBox="0 0 232 194" fill="none" xmlns="http://www.w3.org/2000/svg">
<mask id="path-1-inside-1_102_1066" fill="white">
<path d="M199.124 90.4983C199.124 78.6793 196.796 66.9761 192.273 56.0568C187.75 45.1375 181.12 35.216 172.763 26.8587C164.406 18.5014 154.484 11.8721 143.565 7.34913C132.646 2.82621 120.942 0.49829 109.124 0.498291L109.124 90.4983H199.124Z"/>
</mask>
<path d="M199.124 90.4983C199.124 78.6793 196.796 66.9761 192.273 56.0568C187.75 45.1375 181.12 35.216 172.763 26.8587C164.406 18.5014 154.484 11.8721 143.565 7.34913C132.646 2.82621 120.942 0.49829 109.124 0.498291L109.124 90.4983H199.124Z" stroke="url(#paint0_linear_102_1066)" stroke-width="2" stroke-dasharray="2 2" mask="url(#path-1-inside-1_102_1066)"/>
<mask id="path-2-inside-2_102_1066" fill="white">
<path d="M163.915 163.675C153.45 174.141 140.565 181.864 126.401 186.16C112.238 190.456 97.2339 191.194 82.7178 188.306C68.2015 185.419 54.6215 178.996 43.1805 169.606C31.7395 160.217 22.7907 148.151 17.1267 134.477C11.4628 120.803 9.25854 105.943 10.7093 91.2139C12.16 76.4845 17.2208 62.3403 25.4436 50.0341C33.6664 37.7278 44.7972 27.6394 57.8502 20.6625C70.9031 13.6855 85.4753 10.0354 100.276 10.0354V100.035L163.915 163.675Z"/>
</mask>
<path d="M163.915 163.675C153.45 174.141 140.565 181.864 126.401 186.16C112.238 190.456 97.2339 191.194 82.7178 188.306C68.2015 185.419 54.6215 178.996 43.1805 169.606C31.7395 160.217 22.7907 148.151 17.1267 134.477C11.4628 120.803 9.25854 105.943 10.7093 91.2139C12.16 76.4845 17.2208 62.3403 25.4436 50.0341C33.6664 37.7278 44.7972 27.6394 57.8502 20.6625C70.9031 13.6855 85.4753 10.0354 100.276 10.0354V100.035L163.915 163.675Z" stroke="url(#paint1_linear_102_1066)" stroke-width="4" mask="url(#path-2-inside-2_102_1066)"/>
<path d="M204.124 98.7537C204.124 111.229 201.666 123.583 196.892 135.109C192.118 146.635 185.12 157.107 176.299 165.929L109.124 98.7537H204.124Z" fill="#EDB663"/>
<rect x="148.763" y="74.6814" width="83.026" height="1.72056" rx="0.5" fill="url(#paint2_linear_102_1066)"/>
<path d="M154.329 39.6385H159.594V74.681H154.329V39.6385Z" fill="url(#paint3_linear_102_1066)"/>
<path d="M163.847 26.6873H169.112V74.6803H163.847V26.6873Z" fill="#C263ED"/>
<path d="M192.403 26.689H197.668V74.682H192.403V26.689Z" fill="#4E54EA"/>
<path d="M201.921 39.6385H207.187V74.682H201.921V39.6385Z" fill="#1E999F"/>
<path d="M211.44 55.8897H216.705V74.68H211.44V55.8897Z" fill="#0A91F1"/>
<path d="M220.958 51.0573H226.224V74.6825H220.958V51.0573Z" fill="#6D28A1"/>
<path d="M173.366 34.744H178.631V74.6813H173.366V34.744Z" fill="url(#paint4_linear_102_1066)"/>
<path d="M182.884 45.0152H188.149V74.6815H182.884V45.0152Z" fill="url(#paint5_linear_102_1066)"/>
<rect x="14.6235" y="157.544" width="62" height="31.9918" stroke="url(#paint6_linear_102_1066)"/>
<path d="M20.855 175.887L32.2445 165.258L40.9339 171.098L50.0929 165.258L59.9564 183.011L66.767 174.134" stroke="url(#paint7_linear_102_1066)" stroke-width="0.5" stroke-linecap="round"/>
<ellipse cx="20.3006" cy="176.367" rx="0.837224" ry="0.832794" fill="#4F54E9"/>
<ellipse cx="32.1697" cy="165.258" rx="0.837224" ry="0.832794" fill="#4F54E9"/>
<ellipse cx="40.8865" cy="171.279" rx="0.837224" ry="0.832794" fill="#4F54E9"/>
<ellipse cx="49.9168" cy="165.258" rx="0.837224" ry="0.832794" fill="#4F54E9"/>
<ellipse cx="60.0213" cy="183.011" rx="0.837224" ry="0.832794" fill="#4F54E9"/>
<ellipse cx="66.7674" cy="174.135" rx="0.837224" ry="0.832794" fill="#532383"/>
<path d="M83.6947 192.534C83.6238 192.553 83.5599 192.546 83.5027 192.513C83.4455 192.48 83.4075 192.428 83.3885 192.357L83.2099 191.69C82.705 191.764 82.2641 191.754 81.8874 191.662C81.509 191.563 81.2007 191.404 80.9625 191.185C80.7243 190.966 80.56 190.713 80.4694 190.427C80.4556 190.375 80.4629 190.325 80.4912 190.276C80.5242 190.219 80.5696 190.182 80.6276 190.167L81.6611 189.89C81.7448 189.867 81.8144 189.87 81.8698 189.896C81.9236 189.916 81.9766 189.947 82.0291 189.988C82.1035 190.085 82.2028 190.173 82.327 190.25C82.4576 190.325 82.6194 190.375 82.8122 190.399C83.0033 190.417 83.2277 190.392 83.4853 190.323C83.9038 190.21 84.198 190.059 84.3679 189.869C84.5441 189.676 84.6012 189.464 84.5391 189.233C84.4942 189.065 84.4 188.946 84.2565 188.874C84.1194 188.8 83.9173 188.754 83.6502 188.736C83.3895 188.716 83.0434 188.712 82.6118 188.724C82.1012 188.751 81.657 188.728 81.279 188.657C80.8992 188.579 80.5879 188.435 80.3451 188.224C80.1069 188.005 79.936 187.702 79.8325 187.315C79.6962 186.807 79.7609 186.327 80.0266 185.876C80.2988 185.424 80.7456 185.069 81.3671 184.813L81.1885 184.147C81.1696 184.076 81.1766 184.012 81.2096 183.955C81.2426 183.897 81.2945 183.859 81.3653 183.84L82.0511 183.657C82.1155 183.639 82.1763 183.647 82.2334 183.68C82.2906 183.713 82.3287 183.765 82.3476 183.836L82.5314 184.522C82.9947 184.474 83.4012 184.51 83.7509 184.63C84.1053 184.742 84.3935 184.903 84.6153 185.113C84.8419 185.314 84.9894 185.53 85.058 185.76C85.0718 185.812 85.0654 185.865 85.0389 185.92C85.0106 185.969 84.9674 186.002 84.9095 186.017L83.818 186.31C83.76 186.325 83.7019 186.327 83.6434 186.315C83.585 186.303 83.5279 186.27 83.472 186.216C83.3949 186.057 83.2434 185.943 83.0174 185.872C82.7897 185.795 82.5278 185.796 82.2316 185.875C81.916 185.96 81.6804 186.085 81.5247 186.251C81.369 186.417 81.3231 186.619 81.387 186.858C81.4284 187.012 81.512 187.131 81.638 187.215C81.7622 187.292 81.9449 187.343 82.1863 187.368C82.426 187.387 82.7455 187.394 83.1449 187.391C83.7426 187.355 84.2401 187.37 84.6374 187.436C85.0347 187.502 85.3484 187.642 85.5784 187.857C85.8131 188.063 85.9822 188.359 86.0858 188.746C86.1858 189.119 86.1813 189.476 86.0722 189.816C85.9614 190.149 85.7586 190.448 85.4639 190.714C85.1757 190.977 84.8107 191.199 84.369 191.38L84.5476 192.046C84.5666 192.117 84.5596 192.181 84.5266 192.238C84.4936 192.295 84.4449 192.333 84.3805 192.35L83.6947 192.534Z" fill="white"/>
<path d="M34.4391 28.1715C34.4391 30.8236 35.4927 33.3671 37.368 35.2424C39.2433 37.1177 41.7868 38.1712 44.4389 38.1712C47.091 38.1712 49.6345 37.1177 51.5098 35.2424C53.3851 33.3671 54.4277 30.8236 54.4277 28.1715L44.4389 28.1715L34.4391 28.1715Z" fill="#4E54EA"/>
<path d="M35.3158 27.7195L44.4359 12.4163L53.555 27.6956L35.3158 27.7195Z" stroke="#4E54EA"/>
<path d="M0.153973 28.1715C0.153973 30.8236 1.20752 33.3671 3.08283 35.2424C4.95815 37.1177 7.50163 38.1712 10.1537 38.1712C12.8058 38.1712 15.3493 37.1177 17.2246 35.2424C19.0999 33.3671 20.1426 30.8236 20.1426 28.1715L10.1537 28.1715L0.153973 28.1715Z" fill="#4E54EA"/>
<path d="M1.03063 27.7195L10.1507 12.4163L19.2699 27.6956L1.03063 27.7195Z" stroke="#4E54EA"/>
<rect x="26.6245" y="6.427" width="1.33545" height="37.9205" rx="0.667725" fill="#4E54EA"/>
<rect x="46.2524" y="10.7727" width="1.33545" height="37.9205" rx="0.667725" transform="rotate(90 46.2524 10.7727)" fill="#4E54EA"/>
<rect x="41.0737" y="43.6799" width="1.33545" height="27.562" rx="0.667725" transform="rotate(90 41.0737 43.6799)" fill="#4E54EA"/>
<rect x="35.3198" y="42.3445" width="1.33545" height="16.0542" rx="0.667725" transform="rotate(90 35.3198 42.3445)" fill="#4E54EA"/>
<circle cx="27.2925" cy="11.4402" r="2.63574" fill="#4E54EA"/>
<defs>
<linearGradient id="paint0_linear_102_1066" x1="19.1235" y1="38.9532" x2="57.7429" y2="190.671" gradientUnits="userSpaceOnUse">
<stop stop-color="#1E999F"/>
<stop offset="1" stop-color="#065289"/>
</linearGradient>
<linearGradient id="paint1_linear_102_1066" x1="10.2759" y1="100.035" x2="201.901" y2="100.035" gradientUnits="userSpaceOnUse">
<stop stop-color="#1E999F"/>
<stop offset="1" stop-color="#065289"/>
</linearGradient>
<linearGradient id="paint2_linear_102_1066" x1="227.541" y1="76.3676" x2="224.481" y2="61.5088" gradientUnits="userSpaceOnUse">
<stop stop-color="#40175E"/>
<stop offset="0.451004" stop-color="#0B0F60"/>
</linearGradient>
<linearGradient id="paint3_linear_102_1066" x1="154.329" y1="47.1249" x2="168.096" y2="55.2512" gradientUnits="userSpaceOnUse">
<stop stop-color="#1E999F"/>
<stop offset="1" stop-color="#065289"/>
</linearGradient>
<linearGradient id="paint4_linear_102_1066" x1="173.366" y1="54.7126" x2="178.971" y2="54.7126" gradientUnits="userSpaceOnUse">
<stop stop-color="#3338B1"/>
<stop offset="1" stop-color="#4F54EB"/>
</linearGradient>
<linearGradient id="paint5_linear_102_1066" x1="185.517" y1="45.0152" x2="185.517" y2="74.6815" gradientUnits="userSpaceOnUse">
<stop stop-color="#FDBA0C"/>
<stop offset="1" stop-color="#C18B00"/>
</linearGradient>
<linearGradient id="paint6_linear_102_1066" x1="14.1235" y1="173.54" x2="81.1924" y2="173.54" gradientUnits="userSpaceOnUse">
<stop stop-color="#4E54EA"/>
<stop offset="1" stop-color="#531E7B"/>
</linearGradient>
<linearGradient id="paint7_linear_102_1066" x1="20.855" y1="174.135" x2="69.7322" y2="174.135" gradientUnits="userSpaceOnUse">
<stop stop-color="#4E54EA"/>
<stop offset="1" stop-color="#531E7B"/>
</linearGradient>
</defs>
</svg>
