<?xml version="1.0" standalone="no"?>
<!DOCTYPE svg PUBLIC "-//W3C//DTD SVG 20010904//EN"
 "http://www.w3.org/TR/2001/REC-SVG-20010904/DTD/svg10.dtd">
<svg version="1.0" xmlns="http://www.w3.org/2000/svg"
 width="431.000000pt" height="277.000000pt" viewBox="0 0 431.000000 277.000000"
 preserveAspectRatio="xMidYMid meet">

<g transform="translate(0.000000,277.000000) scale(0.100000,-0.100000)"
fill="#000000" stroke="none">
<path d="M2466 2663 c-36 -55 -70 -111 -75 -126 -12 -30 -47 28 569 -927 211
-327 522 -811 693 -1075 170 -264 318 -490 330 -502 19 -22 28 -23 169 -23 81
0 148 2 148 5 0 2 -253 397 -563 877 -310 480 -707 1096 -882 1368 -175 272
-319 497 -321 499 -2 2 -32 -41 -68 -96z"/>
<path d="M1903 1788 c-249 -387 -572 -890 -719 -1118 -146 -228 -268 -427
-271 -443 -3 -22 9 -44 74 -121 l78 -95 17 27 c9 15 95 147 190 294 932 1437
1228 1901 1228 1925 0 24 -124 233 -139 233 -4 0 -210 -316 -458 -702z"/>
<path d="M17 1267 c4 -7 199 -241 432 -521 344 -411 426 -505 436 -494 27 29
125 193 125 210 0 16 -623 777 -659 805 -24 18 -345 18 -334 0z"/>
</g>
</svg>
